# xmcd CD database file
#
# Track frame offsets:
#	150
#	13232
#	30302
#	42645
#	55395
#	70565
#	83352
#	93250
#	107235
#	123225
#
# Disc length: 1844 seconds
#
# Revision: 2
# Processed by: cddbd v1.4PL0 Copyright (c) Steve Scherf et al.
# Submitted via: CDex 1.40Release
#
DISCID=7607320a
DTITLE=Anderson, Lynn - In My Rose Garden
DYEAR=1900
DGENRE=Country
TTITLE0=Rose Garden
TTITLE1=Blue Bayou
TTITLE2=Stand By Your Man
TTITLE3=I Fall To Pieces
TTITLE4=Could I Have This Dance
TTITLE5=Top Of The World
TTITLE6=What A Man, My Man Is
TTITLE7=Two Doors Down
TTITLE8=You Need Me
TTITLE9=Desperado
EXTD=ID3G: 2
EXTT0=
EXTT1=
EXTT2=
EXTT3=
EXTT4=
EXTT5=
EXTT6=
EXTT7=
EXTT8=
EXTT9=
PLAYORDER=
